<svg version="1.0" xmlns="http://www.w3.org/2000/svg" width="350.000000pt" height="350.000000pt" viewBox="0 0 350.000000 350.000000" preserveAspectRatio="xMidYMid meet">

<g transform="translate(0.000000,350.000000) scale(0.100000,-0.100000)" fill="#ffffff" stroke="none">
<path d="M90 3360 c0 -5 43 -79 95 -165 l95 -155 0 -1271 0 -1270 -95 -164 c-52 -90 -95 -166 -95 -169 0 -3 521 -6 1158 -6 l1157 0 160 297 c88 164 162 301 163 305 2 5 -86 -54 -196 -132 l-200 -140 -838 2 -839 3 -3 1273 -2 1273 95 148 c52 81 97 155 101 164 6 16 -21 17 -375 17 -239 0 -381 -4 -381 -10z" fill="#ffffff"/>
<path d="M1073 3358 c-21 -33 -321 -593 -318 -596 1 -1 89 58 195 133 l193 135 843 0 844 0 0 -1273 0 -1273 -100 -157 c-55 -86 -100 -158 -100 -161 0 -3 171 -6 380 -6 209 0 380 2 380 5 0 2 -43 74 -95 160 l-95 155 0 1273 0 1273 95 163 c52 90 95 168 95 173 0 4 -519 8 -1154 8 -913 0 -1157 -3 -1163 -12z" fill="#ffffff"/>
<path d="M1063 2766 c-73 -33 -80 -118 -19 -241 l37 -74 -26 -50 c-74 -147 -74 -317 1 -539 l34 -104 -29 -88 c-77 -228 -79 -406 -6 -550 l25 -49 -37 -76 c-20 -42 -38 -99 -41 -126 -4 -45 -2 -51 30 -83 58 -58 148 -59 289 -2 l64 25 75 -23 c171 -55 389 -55 558 -1 74 23 74 23 118 4 63 -26 155 -49 200 -49 87 0 151 66 139 143 -3 20 -22 71 -42 112 -37 74 -37 75 -20 105 80 135 85 335 12 557 l-33 103 34 105 c68 209 69 389 3 523 l-31 64 38 81 c51 109 53 163 7 209 -29 29 -39 33 -100 36 -56 2 -84 -3 -163 -30 l-94 -33 -68 23 c-159 53 -384 53 -550 -1 l-78 -25 -77 30 c-93 37 -200 47 -250 24z m154 -80 c76 -20 78 -24 36 -56 -21 -15 -54 -44 -72 -64 -19 -20 -38 -36 -42 -36 -7 0 -59 112 -59 128 0 20 31 42 58 42 15 0 50 -6 79 -14z m696 -8 c31 -6 57 -14 57 -19 0 -5 -15 -16 -32 -25 -18 -10 -70 -41 -116 -71 l-84 -54 -76 49 c-43 27 -96 59 -119 72 -23 13 -40 27 -38 31 5 7 102 25 175 33 48 5 163 -3 233 -16z m461 16 c22 -9 20 -52 -5 -110 -12 -27 -23 -51 -25 -53 -2 -2 -33 24 -69 58 -36 33 -70 61 -75 61 -6 0 -10 4 -10 9 0 21 147 49 184 35z m-901 -120 c45 -26 106 -62 135 -81 l54 -34 -132 -127 c-73 -70 -136 -128 -140 -130 -7 -3 -151 169 -184 220 -22 34 -13 52 51 105 40 34 121 90 131 92 1 1 40 -20 85 -45z m647 29 c66 -43 128 -95 148 -123 l23 -31 -23 -32 c-29 -42 -102 -132 -145 -181 l-35 -38 -101 99 c-56 54 -119 113 -140 130 l-38 30 67 43 c70 44 205 120 214 120 3 0 17 -7 30 -17z m-313 -251 c32 -27 96 -85 142 -129 l84 -81 -21 -28 c-12 -16 -78 -87 -147 -159 l-125 -130 -145 150 c-80 83 -145 154 -145 159 0 20 267 266 290 266 5 0 35 -22 67 -48z m-596 -73 c41 -50 85 -103 97 -119 l24 -29 -55 -68 c-30 -37 -73 -97 -96 -132 l-41 -63 -11 28 c-18 48 -49 206 -49 255 0 75 35 219 53 219 3 0 38 -41 78 -91z m1157 39 c27 -73 35 -160 22 -248 -12 -89 -39 -190 -50 -190 -5 0 -20 21 -35 46 -15 25 -56 82 -91 125 -35 44 -64 82 -64 84 0 3 36 48 80 100 44 52 85 104 92 115 7 11 16 20 20 20 3 0 15 -24 26 -52z m-901 -330 c43 -46 110 -115 147 -155 l69 -72 -143 -151 c-79 -82 -146 -150 -150 -150 -11 0 -107 133 -160 220 l-50 83 34 61 c26 47 166 246 172 246 1 0 37 -37 81 -82z m702 -14 c40 -53 85 -123 102 -156 l30 -59 -37 -62 c-41 -68 -143 -205 -166 -225 -16 -13 -34 4 -237 220 l-63 67 43 49 c90 100 244 261 250 262 3 0 38 -43 78 -96z m-266 -447 l131 -139 -110 -107 c-61 -59 -127 -120 -147 -135 -36 -28 -38 -28 -63 -11 -39 25 -265 247 -262 256 2 5 66 75 143 157 133 141 141 148 159 133 10 -9 77 -78 149 -154z m-634 -52 c26 -33 50 -66 55 -73 4 -8 -22 -48 -73 -110 -44 -53 -89 -108 -99 -122 l-20 -25 -16 39 c-44 105 -42 244 6 404 l21 73 40 -63 c22 -35 60 -90 86 -123z m1095 98 c39 -152 39 -293 -2 -386 l-18 -40 -54 68 c-30 38 -76 93 -102 123 l-46 53 61 77 c34 42 77 101 96 130 19 29 37 50 42 45 4 -4 15 -36 23 -70z m-143 -406 c38 -49 69 -93 69 -97 0 -14 -130 -130 -169 -149 l-38 -20 -99 57 c-54 32 -116 69 -136 83 l-36 25 95 84 c53 47 114 107 137 133 l41 49 33 -39 c18 -21 64 -78 103 -126z m-732 60 c53 -51 113 -107 135 -126 21 -18 35 -36 30 -41 -18 -17 -135 -88 -198 -121 -63 -33 -65 -33 -99 -17 -47 23 -154 113 -162 138 -7 22 5 39 123 183 35 42 66 77 70 77 3 0 49 -42 101 -93z m354 -280 c56 -35 111 -69 122 -75 23 -13 19 -15 -63 -31 -105 -21 -369 -7 -398 22 -3 2 23 21 58 40 35 20 86 52 113 71 28 19 54 35 58 35 5 1 55 -28 110 -62z m-662 7 c18 -20 51 -49 73 -65 l38 -29 -27 -10 c-91 -35 -169 -34 -180 1 -6 18 41 139 54 139 4 0 23 -16 42 -36z m1188 -13 c28 -66 27 -99 -3 -112 -24 -11 -89 -2 -150 21 l-28 10 49 39 c26 21 59 50 72 65 14 14 28 26 32 26 3 0 16 -22 28 -49z" fill="#ffffff"/>
</g>
</svg>